<svg xmlns="http://www.w3.org/2000/svg" width="72" height="72" viewBox="0 0 72 72" fill="none"><rect width="72" height="72" rx="8" fill="url(#paint0_linear_77_29505)"></rect><ellipse opacity="0.3" cx="19" cy="36" rx="2.00001" ry="1.99999" fill="#4778f3"></ellipse><ellipse opacity="0.3" cx="53" cy="35.999" rx="2.00001" ry="1.99999" transform="rotate(180 53 35.999)" fill="#4778f3"></ellipse><ellipse opacity="0.6" cx="25" cy="36" rx="2.00001" ry="1.99999" fill="#4778f3"></ellipse><ellipse opacity="0.6" cx="47" cy="35.999" rx="2.00001" ry="1.99999" transform="rotate(180 47 35.999)" fill="#4778f3"></ellipse><ellipse cx="30.4995" cy="24" rx="2.00001" ry="1.99999" fill="#4778f3"></ellipse><ellipse cx="41.5" cy="48" rx="2.00001" ry="1.99999" transform="rotate(180 41.5 48)" fill="#4778f3"></ellipse><ellipse cx="36" cy="36" rx="2.00001" ry="1.99999" fill="#4778f3"></ellipse><ellipse cx="33.9995" cy="29.999" rx="2.00001" ry="1.99999" fill="#4778f3"></ellipse><ellipse cx="39" cy="42.001" rx="2.00001" ry="1.99999" transform="rotate(180 39 42.001)" fill="#4778f3"></ellipse><ellipse cx="27.9995" cy="29.999" rx="2.00001" ry="1.99999" fill="#4778f3"></ellipse><ellipse cx="44" cy="42.001" rx="2.00001" ry="1.99999" transform="rotate(180 44 42.001)" fill="#4778f3"></ellipse><defs><linearGradient id="paint0_linear_77_29505" x1="37.0651" y1="-4.69565" x2="77.7599" y2="39.9666" gradientUnits="userSpaceOnUse"><stop stop-color="#40454A"></stop><stop offset="1" stop-color="#292C2E"></stop></linearGradient></defs></svg>